<svg width="485" height="144" viewBox="0 0 485 144" fill="none" xmlns="http://www.w3.org/2000/svg">
<path fill-rule="evenodd" clip-rule="evenodd" d="M123.923 60.1846L124.894 57.2726H108.069L107.422 58.2432C104.834 62.773 99.9804 65.6849 93.5093 65.6849C89.3032 65.6849 85.7441 64.3907 83.1557 62.1259C81.2144 60.1846 79.5966 57.9197 78.6259 54.6842H124.57L124.894 52.7429C125.217 51.4487 125.217 49.8309 125.217 48.5367C125.217 30.7413 112.599 15.8579 93.5093 15.8579C75.3904 15.8579 61.8012 29.7707 61.8012 48.2131C61.8012 66.6556 75.3904 80.5684 93.5093 80.5684C107.422 81.2155 118.746 73.4502 123.923 60.1846ZM93.5093 31.3884C97.392 31.3884 100.951 32.6826 103.539 34.6239C105.481 36.2417 107.099 38.183 108.069 41.095H78.9495C81.5379 35.271 86.7148 31.3884 93.5093 31.3884Z" fill="white"/>
<path fill-rule="evenodd" clip-rule="evenodd" d="M161.772 32.0317C157.243 31.061 153.36 30.0904 150.772 28.4726C149.477 27.8255 148.507 26.8548 147.86 26.2077C147.213 25.5606 146.889 24.59 146.889 22.9722C146.889 20.7073 147.86 19.0896 149.801 17.7954C151.742 16.5012 154.654 15.5305 158.213 15.5305C161.772 15.5305 164.684 16.5012 166.949 18.1189C168.891 19.7367 170.185 22.0015 170.185 24.9135V27.1784H186.686V25.2371C186.686 17.7954 184.098 11.3243 179.244 6.7946C174.067 2.26487 167.273 0 158.537 0C150.125 0 143.006 1.94131 138.153 6.14749C132.976 10.3537 130.388 16.1776 130.388 23.6193C130.388 27.8255 131.359 31.3846 132.976 33.973C134.594 36.8849 136.859 39.1498 139.447 40.7676C144.624 44.0031 151.095 45.6209 156.596 46.9151H156.919C161.449 47.8857 165.332 48.8564 168.243 50.4741C169.538 51.1213 170.508 52.0919 171.155 53.0626C171.803 54.0332 172.126 55.0039 172.126 56.6216C172.126 59.2101 170.832 61.4749 168.567 63.0927C166.302 64.7104 163.067 65.6811 159.508 65.6811C155.625 65.6811 152.066 64.7104 149.801 62.7691C147.536 60.8278 146.242 58.2394 146.242 54.6803V52.4155H129.417V54.6803C129.417 62.7691 132.653 69.5637 137.83 74.417C143.33 78.9467 150.772 81.5352 159.508 81.5352C167.596 81.5352 174.715 79.5938 180.215 75.3877C185.715 71.1815 188.951 64.7104 188.951 56.6216C188.951 47.8857 185.068 42.3853 179.568 38.8263C174.391 35.5907 167.92 33.973 162.096 32.3552L161.772 32.0317ZM153.037 31.7081C155.625 32.6788 158.213 33.3259 161.125 33.973C164.361 34.6201 167.92 35.5907 171.155 36.8849C167.92 35.5907 164.684 34.9436 161.125 33.973H160.802C158.213 33.3259 155.301 32.6788 153.037 31.7081ZM145.918 76.6819C136.859 73.1228 131.035 65.034 131.035 54.3568C131.035 55.0039 131.035 55.651 131.035 56.6216C132.006 66.3282 137.506 73.4464 145.918 76.6819Z" fill="white"/>
<path fill-rule="evenodd" clip-rule="evenodd" d="M223.576 81.2119C242.342 81.2119 256.578 67.2991 256.578 48.8566C256.578 30.4142 242.342 16.5014 223.576 16.5014C204.81 16.5014 190.574 30.0906 190.574 48.8566C190.574 67.6227 204.81 81.2119 223.576 81.2119ZM223.576 65.6814C213.87 65.6814 206.751 58.8868 206.751 48.8566C206.751 39.1501 213.546 32.0319 223.576 32.0319C233.283 32.0319 240.077 38.8265 240.077 48.8566C240.077 58.8868 233.283 65.6814 223.576 65.6814ZM223.576 79.2705C205.781 79.2705 192.839 66.3285 192.839 48.8566C192.839 66.3285 206.104 79.2705 223.576 79.2705ZM230.371 66.652C237.812 64.0636 242.342 57.269 242.342 48.8566C242.342 37.8559 234.577 30.0906 223.576 30.0906C221.635 30.0906 219.694 30.4142 217.752 30.7377C219.694 30.0906 221.635 30.0906 223.576 30.0906C234.577 30.0906 242.342 37.8559 242.342 48.8566C242.342 57.5925 237.489 64.3871 230.371 66.652Z" fill="white"/>
<path fill-rule="evenodd" clip-rule="evenodd" d="M315.788 53.3859V17.7951H299.611V51.7681C299.611 56.2978 298.317 59.8569 296.375 62.1218C294.434 64.3866 291.522 65.6808 287.316 65.6808C283.433 65.6808 280.198 64.3866 278.256 62.1218C276.315 59.8569 275.021 56.2978 275.021 51.7681V17.7951H258.843V53.3859C258.843 61.7982 261.755 68.5928 266.609 73.7696C271.785 78.6229 278.904 81.5349 287.316 81.5349C295.728 81.5349 302.846 78.9465 308.023 73.7696C312.876 68.5928 315.788 61.4747 315.788 53.3859ZM301.552 51.7681C301.552 60.1805 297.67 65.6808 291.522 67.2986C297.993 65.6808 301.552 59.8569 301.552 51.7681Z" fill="white"/>
<path fill-rule="evenodd" clip-rule="evenodd" d="M336.495 35.5915C334.23 38.1799 333.259 42.0625 333.259 47.2393V77.6532V46.9158C333.259 42.0625 334.23 38.1799 336.495 35.5915ZM349.113 17.4725C342.319 17.4725 336.818 19.4138 332.612 23.2965L331.318 17.7961H319.346V79.9181H335.524V46.9158C335.524 42.0625 336.818 38.5034 338.76 36.2386C340.701 33.9737 343.613 32.6795 348.143 32.6795H356.555V17.4725H349.113Z" fill="white"/>
<path fill-rule="evenodd" clip-rule="evenodd" d="M419.004 57.269L419.651 54.6806H403.473L402.826 55.9748C399.914 62.1223 394.737 65.6814 387.943 65.6814C378.883 65.6814 371.765 58.2397 371.765 48.8566C371.765 39.1501 378.56 32.0319 387.943 32.0319C394.737 32.0319 400.238 35.591 402.826 41.4149L403.473 42.7091H419.327L418.68 40.1207C415.121 25.8844 403.15 16.5014 387.943 16.5014C369.5 16.5014 355.588 30.4142 355.588 48.8566C355.588 67.2991 369.5 81.2119 387.943 81.2119C403.15 81.2119 415.445 71.8288 419.004 57.269ZM404.768 56.6219C402.503 61.7987 398.62 65.3578 393.443 66.9756C398.62 65.6814 402.503 62.1223 404.768 56.6219Z" fill="white"/>
<path fill-rule="evenodd" clip-rule="evenodd" d="M483.706 60.1842L484.677 57.2722H467.852L467.205 58.2428C464.616 62.7726 459.763 65.6845 453.292 65.6845C449.086 65.6845 445.527 64.3903 442.938 62.1255C440.997 60.1842 439.379 57.9193 438.409 54.6838H484.353L484.677 52.7424C485 51.4482 485 49.8305 485 48.5363C485 30.7409 472.382 15.8575 453.292 15.8575C435.173 15.8575 421.584 29.7702 421.584 48.2127C421.584 66.6552 435.173 80.5679 453.292 80.5679C467.528 81.215 478.853 73.4498 483.706 60.1842ZM455.88 79.2737C455.233 79.2737 454.263 79.2737 453.615 79.2737C436.791 79.2737 423.849 66.3316 423.849 48.8598C423.849 33.3293 434.202 21.0343 448.762 19.093C434.202 21.3579 423.849 33.3293 423.849 48.8598C423.849 66.3316 436.467 79.2737 453.615 79.2737C454.586 79.2737 455.233 79.2737 455.88 79.2737ZM453.615 31.388C457.498 31.388 461.057 32.6822 463.646 34.6235C465.587 36.2413 467.205 38.1826 468.175 41.0946H439.056C441.644 35.2706 446.821 31.388 453.615 31.388ZM453.615 29.4467C461.704 29.4467 467.852 33.6529 470.44 41.0946C470.764 41.7417 470.764 42.3888 471.087 43.3594C469.146 34.6235 462.675 29.4467 453.615 29.4467Z" fill="white"/>
<path d="M49.8304 50.1496C49.5069 49.179 49.5069 48.2083 50.4775 47.8848C57.5957 43.6786 61.1547 35.5898 61.1547 26.8539C61.1547 10.3527 50.4775 0.322589 31.0644 0.322589H2.91535C1.62114 0.322589 0.650484 1.6168 1.29759 2.91101L7.76863 14.8824C8.09219 15.5295 8.73929 15.8531 9.38639 15.8531H28.7995C35.9177 15.8531 40.4474 20.3828 40.4474 27.1774C40.4474 33.972 36.2412 38.5017 28.7995 38.5017H23.9462C22.652 38.5017 22.0049 39.796 22.3285 41.0902L28.476 52.4145L40.1239 73.7689C43.3594 79.9164 45.6242 81.5342 50.4775 81.5342C56.3015 81.5342 60.5076 77.6516 60.5076 72.1512C60.5076 69.8863 60.1841 67.945 58.2428 65.033L49.8304 50.1496Z" fill="white"/>
<path d="M9.70657 81.5338C15.207 81.5338 19.4131 77.004 19.4131 71.5036C19.4131 66.0033 14.8834 61.4735 9.70657 61.4735C4.20618 61.4735 0 66.0033 0 71.5036C0 77.004 4.52973 81.5338 9.70657 81.5338Z" fill="white"/>
<path opacity="0.8" d="M0.936 129.535H4.212L6.228 118.159H15.084L15.552 115.603H6.696L8.208 106.999H19.08L19.548 104.443H5.4L0.936 129.535ZM19.0766 129.535H22.3526L25.8446 109.807H22.5686L19.0766 129.535ZM24.8006 106.603C26.0246 106.603 27.1766 105.631 27.3926 104.371C27.6086 103.111 26.8166 102.139 25.5926 102.139C24.3686 102.139 23.2166 103.111 23.0006 104.371C22.7846 105.631 23.5766 106.603 24.8006 106.603ZM42.372 129.535H45.612L47.664 117.907C48.672 112.255 45.648 109.447 41.112 109.447C38.448 109.447 35.856 110.563 34.2 112.651L34.704 109.807H31.428L27.936 129.535H31.212L33.156 118.555V118.627C33.912 114.379 36.576 112.291 39.924 112.291C43.236 112.291 45.036 114.343 44.352 118.375L42.372 129.535ZM51.4673 119.599C50.3873 125.719 53.7713 129.859 59.0273 129.859C62.6633 129.859 65.5433 127.987 67.1273 125.863L66.4433 129.535H69.7553L73.2473 109.807H69.9353L69.2873 113.407C68.4953 111.355 66.3353 109.483 62.6633 109.483C57.3353 109.483 52.5473 113.443 51.4673 119.599ZM68.2073 119.635C67.3793 124.279 63.8153 126.979 60.2153 126.979C56.6153 126.979 54.0233 124.243 54.8513 119.599C55.6433 114.955 59.2073 112.327 62.8073 112.327C66.4073 112.327 69.0353 115.063 68.2073 119.635ZM89.7275 129.535H92.9675L95.0195 117.907C96.0275 112.255 93.0035 109.447 88.4675 109.447C85.8035 109.447 83.2115 110.563 81.5555 112.651L82.0595 109.807H78.7835L75.2915 129.535H78.5675L80.5115 118.555V118.627C81.2675 114.379 83.9315 112.291 87.2795 112.291C90.5915 112.291 92.3915 114.343 91.7075 118.375L89.7275 129.535ZM98.8228 119.635C97.7068 125.899 101.055 129.859 106.671 129.859C111.567 129.859 115.239 127.123 116.931 123.199H113.403C112.251 125.683 110.055 127.087 107.175 127.087C103.575 127.087 101.343 124.531 102.207 119.635C103.035 114.811 106.167 112.255 109.767 112.255C112.683 112.255 114.411 113.767 114.663 116.143H118.191C117.903 112.003 115.167 109.483 110.271 109.483C104.655 109.483 99.9388 113.443 98.8228 119.635ZM131.634 112.255C135.018 112.255 137.502 114.379 136.782 118.411H124.29C125.298 114.451 128.394 112.255 131.634 112.255ZM138.87 123.451H135.342C134.262 125.575 132.138 127.087 129.186 127.087C125.766 127.087 123.354 124.819 123.858 120.787H139.626C139.842 120.103 139.986 119.527 140.094 118.843C141.03 113.515 137.97 109.483 132.246 109.483C126.522 109.483 121.806 113.407 120.69 119.635C119.574 125.899 123.066 129.859 128.682 129.859C133.578 129.859 137.214 127.051 138.87 123.451Z" fill="white"/>
</svg>
